<svg width="231" height="26" viewBox="0 0 231 26" fill="none" xmlns="http://www.w3.org/2000/svg">
<path d="M10.5151 21.2588H14.2463V0H8.81911C3.36113 0 0.493377 2.78353 0.493377 6.88235C0.493377 10.1553 2.06602 12.0824 4.8721 14.0706L0 21.2588H4.03952L9.46667 13.2141L7.58567 11.96C5.3038 10.4306 4.1937 9.23765 4.1937 6.66824C4.1937 4.40471 5.79718 2.87529 8.84995 2.87529H10.5151V21.2588ZM82.4556 21.5647C84.1516 21.5647 85.3542 21.2588 86.2484 20.6165V17.6494C85.3233 18.2918 84.2132 18.6894 82.6714 18.6894C80.0504 18.6894 78.9711 16.6706 78.9711 13.4894C78.9711 10.1553 80.2971 8.44235 82.7023 8.44235C84.1207 8.44235 85.5084 8.93176 86.2484 9.39059V6.30118C85.4775 5.87294 84.1207 5.56706 82.3014 5.56706C77.6143 5.56706 75.1783 8.90118 75.1783 13.5812C75.1783 18.72 77.5527 21.5647 82.4556 21.5647ZM59.5136 20.2188V17.2518C58.3726 18.0165 56.4608 18.6894 54.6723 18.6894C51.9896 18.6894 50.972 17.4353 50.8178 14.8659H59.6677V12.9388C59.6677 7.58588 57.2934 5.56706 53.6239 5.56706C49.1527 5.56706 47.025 8.96235 47.025 13.6118C47.025 18.9647 49.6769 21.5647 54.3639 21.5647C56.7075 21.5647 58.4343 20.9529 59.5136 20.2188ZM71.2313 21.2588H75.3941L69.5044 13.0918L74.6849 5.87294H70.9846L65.8041 13.0918V5.87294H62.1346V21.2588H65.8041V13.8259L71.2313 21.2588ZM46.1307 18.3835H44.4964V5.87294H33.7963V7.18824C33.7963 10.9506 33.5496 15.8141 32.2545 18.3835H31.1136V24.7765H34.5055V21.2588H42.7388V24.7765H46.1307V18.3835ZM25.9023 5.87294V11.96H20.9993V5.87294H17.3299V21.2588H20.9993V14.8353H25.9023V21.2588H29.5718V5.87294H25.9023ZM53.5622 8.44235C55.3815 8.44235 55.9366 9.94118 55.9366 11.8682V12.1741H50.8178C50.9103 9.72706 51.8046 8.44235 53.5622 8.44235ZM40.8269 18.3835H35.6465C36.6641 16.0588 36.9416 11.8682 36.9416 9.20706V8.74824H40.8269V18.3835ZM94.8856 0V21.2588H98.6168V2.87529H105.277V21.2588H109.008V0H94.8856ZM115.473 5.87294H112.081V25.6941H115.75V19.4541C116.675 20.8306 118.032 21.5647 119.605 21.5647C123.182 21.5647 125.649 18.72 125.649 13.5506C125.649 8.41177 123.243 5.56706 119.79 5.56706C118.063 5.56706 116.645 6.36235 115.658 7.86118L115.473 5.87294ZM118.68 18.6894C116.737 18.6894 115.75 17.1294 115.75 13.5812C115.75 10.0024 116.799 8.44235 118.865 8.44235C120.869 8.44235 121.856 10.0024 121.856 13.5506C121.856 17.1294 120.807 18.6894 118.68 18.6894ZM139.544 10.7671C139.544 7.03529 137.633 5.62824 133.747 5.62824C131.311 5.62824 129.399 6.39294 128.289 7.03529V10.0635C129.276 9.32941 131.435 8.53412 133.316 8.53412C135.073 8.53412 135.875 9.14588 135.875 10.7976V11.6541H135.289C129.677 11.6541 127.179 13.4894 127.179 16.6094C127.179 19.7294 129.091 21.4729 131.928 21.4729C134.086 21.4729 135.012 20.7694 135.721 20.0353H135.875C135.906 20.4329 136.029 20.9529 136.152 21.2588H139.729C139.606 20.0047 139.544 18.7506 139.544 17.4965V10.7671ZM135.875 17.5882C135.412 18.2612 134.549 18.8118 133.254 18.8118C131.712 18.8118 130.941 17.9553 130.941 16.64C130.941 14.8965 132.205 14.2541 135.351 14.2541H135.875V17.5882ZM151.591 21.2588H155.754L149.864 13.0918L155.045 5.87294H151.344L146.164 13.0918V5.87294H142.494V21.2588H146.164V13.8259L151.591 21.2588ZM168.056 8.74824V5.87294H155.753V8.74824H160.07V21.2588H163.739V8.74824H168.056ZM170.229 5.87294V21.2588H173.498L179.11 11.7459V21.2588H182.656V5.87294H179.388L173.775 15.3859V5.87294H170.229ZM194.834 21.2588H198.997L193.108 13.0918L198.288 5.87294H194.588L189.407 13.0918V5.87294H185.738V21.2588H189.407V13.8259L194.834 21.2588ZM202.226 26C205.649 26 206.913 23.5835 207.961 20.4329L212.803 5.87294H209.256L205.834 17.4353L202.411 5.87294H198.556L203.891 21.9318C203.49 22.6659 202.904 23.1247 201.887 23.1247C201.208 23.1247 200.622 22.9106 200.222 22.5129V25.48C200.222 25.48 200.777 26 202.226 26ZM227.423 21.2588H231L230.938 5.87294H225.912L222.551 16.12L219.529 5.87294H214.194V21.2588H217.309V9.75765L220.67 21.2588H223.661L227.423 9.75765V21.2588Z" fill="black"/>
</svg>
