<svg width="269" height="38" viewBox="0 0 269 38" fill="none" xmlns="http://www.w3.org/2000/svg">
<path d="M59.0978 10.75L59.5943 10.25C59.5943 4.25 54.8271 0 48.6199 0C42.4127 0 37.7449 4.25 37.7449 9.75C37.7449 15.75 41.4692 19 46.1867 20.55C47.4281 20.95 48.9675 21.4 50.1593 21.7001C52.5926 22.3 55.3734 23.75 55.3734 27.25C55.3734 30.5 53.1388 32.75 48.9179 32.75C45.4915 32.75 42.1148 30.2501 42.2141 25.75L41.7175 25.25L37.2483 26.75L37 27.25C37.0993 32.85 42.1644 38 48.9179 38C56.6148 38 60.5874 32.5 60.5874 27.25C60.5874 21.2501 56.8631 18.1 52.1457 16.8L48.173 15.65C44.2997 14.5 42.9589 12.75 42.9589 9.75C42.9589 7.05 45.1935 5 48.6696 5C52.1456 5 54.3802 7.50001 54.3802 10.25L54.8769 10.75H59.0978Z" fill="#BDBDBD"/>
<path d="M66.0654 5.25L66.5619 5.75001H74.6065V36.75L75.103 37.25H79.3736L79.8701 36.75V5.75001H87.9147L88.4114 5.25V1.25L87.9147 0.750003H66.5619L66.0654 1.25V5.25Z" fill="#BDBDBD"/>
<path d="M94.8823 36.75L95.379 37.25H99.5999L100.096 36.75V21H100.841L112.263 36.75L112.759 37.25H118.222V36.25L106.751 20.95C112.263 20.7501 117.477 17.05 117.477 11C117.477 4.50001 112.263 0.750003 106.304 0.750003H95.379L94.8823 1.25V36.75ZM100.096 16.25V5.75001H106.552C109.531 5.75001 112.263 7.50001 112.263 11C112.263 14.5 109.531 16.25 106.552 16.25H100.096Z" fill="#BDBDBD"/>
<path d="M123.203 36.75L123.699 37.25H144.556L145.052 36.75V32.75L144.556 32.25H128.417V21.2501H144.059L144.556 20.7501V16.75L144.059 16.25H128.417V5.75001H144.556L145.052 5.25V1.25L144.556 0.750003H123.699L123.203 1.25V36.75Z" fill="#BDBDBD"/>
<path d="M151.523 36.75L152.02 37.25H172.876L173.373 36.75V32.75L172.876 32.25H156.737V1.25L156.241 0.750003H152.02L151.523 1.25V36.75Z" fill="#BDBDBD"/>
<path d="M196.727 0.750003L196.231 1.25L185.057 15.75V1.25L184.611 0.750003H180.341L179.844 1.25V36.75L180.341 37.25H184.561L185.057 36.75V21.75L196.727 36.75L197.224 37.25H202.935L203.183 36.75L188.782 18.5L202.687 1.25L202.438 0.750003H196.727Z" fill="#BDBDBD"/>
<path d="M205.681 36.75L205.93 37.25H210.647L211.144 36.75L213.279 28.25H224.402L226.538 36.75L227.034 37.25H231.751L232 36.75L222.068 1.25L221.572 0.750003H216.11L215.613 1.25L205.681 36.75ZM218.841 7.25001L223.062 23.25H214.619L218.841 7.25001Z" fill="#BDBDBD"/>
</svg>
