<svg width="269" height="38" viewBox="0 0 269 38" fill="none" xmlns="http://www.w3.org/2000/svg">
<path fill-rule="evenodd" clip-rule="evenodd" d="M33.4978 31.8535L21.5954 0H14.7809L12.5873 5.89448L22.1171 31.8528C22.6951 33.4752 22.5202 35.0427 18.8255 35.0427V37.2067H37.4216V35.0427C35.8624 35.0427 34.3581 34.2338 33.4978 31.8535ZM57.4115 34.9419H58.6491V37.2067H39.849V35.256C40.4907 35.2418 41.1224 35.0987 41.7031 34.8356C42.1502 34.5794 42.5104 34.2042 42.7404 33.7553C42.9702 33.3061 43.06 32.8028 42.9987 32.3057V16.3905C42.9987 14.5974 42.7173 14.0715 40.352 14.1259C39.9202 14.1198 39.4883 14.1361 39.0581 14.1747V12.3319C41.6476 11.4368 46.7168 10.0664 49.9778 10.0664C53.0171 10.0664 53.7482 11.0134 53.7482 13.4371V14.861C56.337 11.6998 59.0957 10.0664 62.1914 10.0664C65.0629 10.0664 67.3122 11.7517 67.3122 14.7044C67.3531 15.3138 67.2619 15.9249 67.0444 16.4986C66.8268 17.0724 66.4877 17.5962 66.0484 18.0371C65.6092 18.4781 65.0795 18.8264 64.493 19.0599C63.9064 19.2935 63.2759 19.407 62.6412 19.3936C59.0393 19.3936 59.377 15.7057 56.1676 15.7057C55.3162 15.7451 54.4869 15.9799 53.7491 16.3905V32.3057C53.7523 33.8359 54.9906 34.9419 57.4115 34.9419ZM71.4141 10.8583H95.447L96.4047 12.3319L81.6581 34.3074H86.3266C88.1825 34.2713 89.9771 33.6632 91.4467 32.5723C92.9163 31.4815 93.983 29.9656 94.4901 28.2477L96.4047 28.4595L95.1664 37.2067H69.7251L68.881 35.8369L83.6291 13.7551H79.4613C74.7927 13.7551 72.82 16.5472 71.6413 19.4487L69.5606 19.1843L71.4141 10.8583ZM129.272 34.7837C129.607 34.8106 129.944 34.8106 130.279 34.7837L130.336 35.9967C127.807 37.2961 124.988 37.9835 122.121 37.9993C116.889 37.9993 115.76 35.8377 115.76 32.7819V32.2018C113.906 35.1537 111.034 37.9465 106.531 37.9465C102.252 37.9465 99.7753 35.4166 99.7753 31.6743C99.7753 26.6671 104.167 24.9825 109.908 23.8758L115.76 22.7697V21.8197C115.76 18.7103 114.524 16.6558 110.3 16.6558C107.109 16.7768 103.94 17.2188 100.845 17.9743V14.2329C105.631 11.8091 111.034 10.0703 115.591 10.0703C123.58 10.0703 126.515 14.1808 126.515 21.1914V31.5176C126.515 34.098 127.127 34.7837 129.272 34.7837ZM115.76 30.9368V24.8763L112.835 25.5627C110.866 26.0373 109.4 26.8261 109.4 28.724C109.4 30.7793 111.146 31.4641 112.835 31.4641C113.834 31.4416 114.821 31.2641 115.76 30.9368ZM147.927 34.7837C148.485 35.0667 149.102 35.2285 149.733 35.2576V37.2081H132.674V35.2576C133.318 35.244 133.953 35.1009 134.536 34.8372C134.982 34.5807 135.342 34.2051 135.571 33.7561C135.8 33.307 135.888 32.8038 135.826 32.3072V16.3922C135.826 14.6516 135.544 14.1274 133.464 14.1274C133.012 14.1274 132.504 14.1274 131.892 14.1762V12.3319C134.48 11.4368 139.542 10.0664 142.807 10.0664C145.847 10.0664 146.58 11.0134 146.58 13.4371V15.3885C149.563 12.3319 153.28 10.0664 157.552 10.0664C162.341 10.0664 164.873 11.91 165.768 15.6506C168.864 12.4878 172.588 10.0664 177.029 10.0664C183.278 10.0664 185.696 13.1757 185.696 19.7093V32.3057C185.651 32.799 185.755 33.2943 185.994 33.7332C186.231 34.1719 186.596 34.5359 187.042 34.7821C187.601 35.0642 188.218 35.2259 188.848 35.256V37.2067H171.789V35.256C172.433 35.2425 173.069 35.0993 173.652 34.8356C174.098 34.5791 174.458 34.2037 174.687 33.7545C174.916 33.3055 175.005 32.8022 174.942 32.3057V22.6107C174.942 18.5545 174.273 15.7615 169.935 15.7615C168.56 15.7323 167.196 16.0022 165.945 16.551C166.128 17.5957 166.222 18.653 166.227 19.7123V32.3088C166.18 32.8023 166.282 33.2982 166.521 33.7374C166.76 34.1765 167.126 34.5402 167.574 34.7852C168.129 35.0683 168.743 35.2301 169.371 35.2592V37.2097H152.321V35.2592C152.962 35.2456 153.593 35.1024 154.175 34.8387C154.623 34.5829 154.983 34.2077 155.213 33.7588C155.443 33.3098 155.534 32.806 155.472 32.3088V22.6139C155.472 18.5576 154.795 15.7647 150.458 15.7647C149.126 15.7431 147.804 15.994 146.58 16.5007V32.3118C146.537 32.8044 146.64 33.2985 146.879 33.7363C147.118 34.174 147.481 34.5381 147.927 34.7837ZM221.176 34.7837C221.512 34.8106 221.848 34.8106 222.184 34.7837L222.24 35.9967C219.711 37.2961 216.892 37.9835 214.025 37.9993C208.792 37.9993 207.664 35.8377 207.664 32.7819V32.2018C205.81 35.1537 202.933 37.9465 198.433 37.9465C194.161 37.9465 191.678 35.4166 191.678 31.6743C191.678 26.6671 196.072 24.9825 201.812 23.8758L207.664 22.7697V21.8197C207.664 18.7103 206.422 16.6558 202.207 16.6558C199.015 16.7771 195.846 17.2191 192.75 17.9743V14.2329C197.531 11.8091 202.933 10.0703 207.495 10.0703C215.492 10.0703 218.419 14.1808 218.419 21.1914V31.5176C218.419 34.098 219.04 34.7837 221.176 34.7837ZM207.664 30.9368V24.8763L204.737 25.5627C202.771 26.0373 201.303 26.8261 201.303 28.724C201.303 30.7793 203.054 31.4641 204.737 31.4641C205.737 31.4418 206.725 31.2642 207.664 30.9368ZM224.82 36.1526L224.65 28.565L226.956 28.3005C228.979 32.4111 231.849 35.1537 235.735 35.1537C238.436 35.1537 239.959 33.68 239.959 31.9389C239.959 30.0937 238.098 29.3018 235.735 28.724L233.203 28.0919C229.374 27.1425 225.102 24.6142 225.102 19.7644C225.102 14.0196 230.954 10.0695 238.943 10.0695C242.144 10.01 245.312 10.6971 248.175 12.0721L248.739 18.8196L246.038 18.9748C243.564 14.3361 240.968 12.9128 238.21 12.9128C235.792 12.9128 234.55 14.3361 234.55 16.023C234.55 18.0782 236.187 19.0283 238.379 19.5558L241.475 20.291C245.192 21.19 249.698 22.9792 249.698 28.0927C249.698 35.0481 241.532 38 234.728 38C231.335 37.9807 227.975 37.3547 224.82 36.1526ZM258.317 28.8566C255.607 28.8566 252.625 27.59 252.625 24.0604C252.625 20.5307 255.607 19.2122 258.317 19.2122C260.952 19.2122 264 20.5307 264 24.0604C264 27.59 260.952 28.8566 258.317 28.8566ZM11.3039 29.4104C8.60156 29.4104 6 28.1438 6 24.6142C6 21.0844 8.60156 19.7651 11.3039 19.7651C13.9457 19.7651 16.6319 21.0837 16.6319 24.6142C16.6319 28.1445 13.9417 29.4097 11.2998 29.4097L11.3039 29.4104Z" fill="#BDBDBD"/>
</svg>
