<svg width="269" height="38" viewBox="0 0 269 38" fill="none" xmlns="http://www.w3.org/2000/svg">
<path fill-rule="evenodd" clip-rule="evenodd" d="M107.564 6.38787C104.384 3.24167 100.061 1.29593 95.3522 1.29593C90.6447 1.29593 86.3228 3.24261 83.1405 6.38787C79.8831 9.60916 77.8682 14.068 77.8682 18.9996C77.8682 23.9312 79.884 28.3899 83.1442 31.6113C86.3246 34.7575 90.6456 36.7032 95.3559 36.7032C100.063 36.7032 104.385 34.7564 107.568 31.6113C110.826 28.389 112.842 23.9302 112.842 18.9996C112.842 14.068 110.826 9.60916 107.566 6.38787H107.564ZM95.3522 0.737882C100.69 0.737882 105.462 2.81805 108.862 6.18116C112.186 9.46641 114.243 13.9994 114.243 18.9996C114.243 23.9998 112.184 28.5327 108.861 31.8198C105.46 35.181 100.688 37.2613 95.3513 37.2613C90.0142 37.2613 85.2416 35.181 81.8414 31.8198C78.5173 28.5327 76.4615 23.9998 76.4615 18.9996C76.4615 13.9994 78.5173 9.46641 81.8414 6.18116C85.2434 2.81805 90.0151 0.737882 95.3522 0.737882ZM95.3522 17.5442C96.1617 17.5442 96.8173 18.1958 96.8173 18.9996C96.8173 19.8032 96.1617 20.4549 95.3522 20.4549C94.5456 20.4549 93.89 19.8032 93.89 18.9996C93.89 18.1958 94.5437 17.5442 95.3522 17.5442ZM201.447 26.4896H221.241L211.344 2.38977L201.447 26.4896ZM223.018 36.5252H225.36L221.468 27.0477H201.215L197.322 36.5252H200.365V37.0833H193.383V36.5252H196.657L200.549 27.0477H198.15V26.4896H200.779L211.66 0L226.66 36.5252H230V37.0833H223.018V36.5252ZM162.342 14.652H164.775C165.763 14.652 166.898 14.652 167.872 14.0865C168.395 13.7806 168.894 13.3245 169.351 12.7823C169.869 12.1668 170.324 11.4399 170.695 10.6946C171.055 9.97806 171.326 9.25783 171.549 8.55702C171.771 7.85437 171.949 7.15264 172.111 6.49263L172.163 6.27757C172.465 5.03911 172.728 3.96009 173.307 3.1258C173.606 2.69475 173.988 2.33045 174.414 2.03196C174.902 1.69175 175.454 1.43498 176.01 1.26256C176.574 1.08921 177.134 1.003 177.692 0.959433H177.694C178.224 0.91865 178.715 0.91865 179.206 0.91865V1.4767C178.777 1.4767 178.348 1.4767 177.958 1.50636C177.592 1.53417 177.226 1.59164 176.862 1.7038C176.445 1.83359 176.021 2.03382 175.627 2.30635C175.257 2.56868 174.918 2.89035 174.651 3.27505C174.104 4.06299 173.844 5.11976 173.551 6.33133L173.498 6.54639C173.337 7.20084 173.16 7.8998 172.93 8.62655C172.698 9.35517 172.422 10.0931 172.068 10.805C171.688 11.567 171.215 12.316 170.673 12.9621C170.175 13.5525 169.619 14.0559 169.022 14.4026C168.86 14.4953 168.694 14.5787 168.529 14.6529H169.935C171.611 14.6529 173.538 14.6529 175.248 15.9414C175.99 16.5023 176.681 17.3189 177.303 18.2812C177.99 19.3425 178.59 20.5764 179.07 21.8287C179.525 23.0116 179.877 24.2296 180.168 25.4283C180.465 26.6426 180.69 27.7939 180.895 28.872L180.961 29.2298C181.341 31.2525 181.672 33.0147 182.38 34.3412C182.709 34.9549 183.121 35.4786 183.551 35.9125C184.082 36.4464 184.637 36.8358 185.095 37.0833C185.452 37.2779 185.723 37.3688 185.947 37.4105C186.126 37.442 186.336 37.442 186.543 37.442V38C186.184 38 185.825 38 185.361 37.9148C184.94 37.8378 184.486 37.6923 183.965 37.4114C183.446 37.1314 182.825 36.6976 182.248 36.1174C181.793 35.6603 181.357 35.1069 181.011 34.4561C180.281 33.0935 179.947 31.3136 179.565 29.2715L179.496 28.9137C179.288 27.8106 179.06 26.6388 178.777 25.4801C178.492 24.3075 178.143 23.1043 177.685 21.913C177.208 20.6653 176.619 19.4491 175.952 18.4183C175.359 17.5006 174.703 16.7256 174.012 16.2029C172.696 15.211 171.221 15.211 169.937 15.211H165.937V15.1924C165.539 15.211 165.15 15.211 164.775 15.211H162.342V36.528H165.133V37.086H158.149V36.528H160.94V1.47576H158.149V0.915866H165.131V1.47391H162.342V14.652ZM145.394 36.5252H147.739L133.72 2.38977L119.7 36.5252H122.746V37.0833H115.764V36.5252H119.037L134.041 0L149.041 36.5252H152.38V37.0833H145.398V36.5252H145.394ZM69.3329 1.47391V36.5252H72.1239V37.0833H65.1418V36.5252H67.9281V1.47391H43.193V36.8042H41.791V1.47391H39V0.915866H72.123V1.47391H69.3329Z" fill="#BDBDBD"/>
</svg>
